<?xml version="1.0" encoding="UTF-8" standalone="no"?>
<svg
   xmlns:dc="http://purl.org/dc/elements/1.1/"
   xmlns:cc="http://creativecommons.org/ns#"
   xmlns:rdf="http://www.w3.org/1999/02/22-rdf-syntax-ns#"
   xmlns:svg="http://www.w3.org/2000/svg"
   xmlns="http://www.w3.org/2000/svg"
   xmlns:sodipodi="http://sodipodi.sourceforge.net/DTD/sodipodi-0.dtd"
   xmlns:inkscape="http://www.inkscape.org/namespaces/inkscape"
   inkscape:version="1.0 (4035a4fb49, 2020-05-01)"
   height="48"
   width="61"
   sodipodi:docname="sealcode.svg"
   id="svg118"
   version="1.1"
   viewBox="0 0 61 48"
   alt="sealcode-logo"
   class="navigation__logo">
  <metadata
     id="metadata124">
    <rdf:RDF>
      <cc:Work
         rdf:about="">
        <dc:format>image/svg+xml</dc:format>
        <dc:type
           rdf:resource="http://purl.org/dc/dcmitype/StillImage" />
        <dc:title></dc:title>
      </cc:Work>
    </rdf:RDF>
  </metadata>
  <defs
     id="defs122" />
  <sodipodi:namedview
     inkscape:current-layer="svg118"
     inkscape:window-maximized="1"
     inkscape:window-y="28"
     inkscape:window-x="0"
     inkscape:cy="24"
     inkscape:cx="85"
     inkscape:zoom="7.8764706"
     showgrid="false"
     id="namedview120"
     inkscape:window-height="1020"
     inkscape:window-width="1920"
     inkscape:pageshadow="2"
     inkscape:pageopacity="0"
     guidetolerance="10"
     gridtolerance="10"
     objecttolerance="10"
     borderopacity="1"
     bordercolor="#666666"
     pagecolor="#ffffff" />
  <g
     id="g116"
     fill-rule="evenodd"
     fill="none">
    <path
       id="path100"
       d="M 0.052,24.164 23.85,0.522 47.65,24.164 23.85,47.807 Z"
       fill="#5294a1" />
    <path
       id="path102"
       d="M 13.47,24.164 37.268,0.522 61.067,24.164 37.268,47.807 Z"
       fill="#5294a1" />
    <path
       id="path104"
       d="M 13.477,24.168 30.55,7.206 47.624,24.168 30.551,41.13 Z"
       fill="#ffffff" />
    <path
       id="path106"
       d="m 13.253,24.109 8.352,-8.298 8.353,8.298 -8.353,8.297 z"
       fill="#8bbac4" />
    <g
       id="g110"
       class="navigation__logo-text">
      <path
         id="path108"
         d="m 66.449,16.515 c 0.676,0.545 1.407,0.99 2.193,1.335 0.804,0.345 1.6,0.517 2.385,0.517 0.932,0 1.608,-0.154 2.029,-0.463 0.438,-0.308 0.658,-0.726 0.658,-1.252 0,-0.273 -0.064,-0.509 -0.192,-0.709 -0.128,-0.2 -0.31,-0.372 -0.548,-0.517 A 3.934,3.934 0 0 0 72.096,14.99 c -0.329,-0.145 -0.713,-0.3 -1.151,-0.463 l -2.303,-0.98 a 8.24,8.24 0 0 1 -1.453,-0.708 5.909,5.909 0 0 1 -1.207,-1.008 c -0.347,-0.4 -0.63,-0.854 -0.85,-1.362 a 4.93,4.93 0 0 1 -0.301,-1.77 c 0,-0.727 0.155,-1.408 0.466,-2.043 A 5.247,5.247 0 0 1 66.64,4.967 6.402,6.402 0 0 1 68.724,3.823 c 0.804,-0.272 1.69,-0.408 2.66,-0.408 1.096,0 2.156,0.2 3.18,0.6 1.023,0.399 1.946,0.98 2.769,1.742 L 75.276,8.29 A 8.211,8.211 0 0 0 73.44,7.255 C 72.836,7.001 72.151,6.874 71.383,6.874 c -0.786,0 -1.398,0.145 -1.836,0.436 -0.42,0.272 -0.631,0.662 -0.631,1.17 0,0.545 0.274,0.954 0.822,1.226 0.549,0.273 1.252,0.563 2.111,0.872 l 2.166,0.926 c 1.188,0.436 2.12,1.035 2.797,1.798 0.694,0.762 1.042,1.77 1.042,3.023 0,0.744 -0.156,1.452 -0.466,2.124 a 5.334,5.334 0 0 1 -1.344,1.743 c -0.585,0.49 -1.307,0.89 -2.166,1.199 -0.859,0.29 -1.846,0.435 -2.96,0.435 -1.207,0 -2.404,-0.208 -3.592,-0.626 a 10.22,10.22 0 0 1 -3.208,-1.934 l 2.33,-2.75 z M 81.763,3.742 h 11.79 v 3.377 h -7.76 v 3.568 h 6.58 v 3.35 h -6.58 v 4.085 h 8.033 V 21.5 H 81.763 Z m 23.897,10.404 -0.412,-1.634 c -0.237,-0.89 -0.475,-1.834 -0.713,-2.833 -0.237,-0.998 -0.475,-1.96 -0.713,-2.887 h -0.11 c -0.219,0.944 -0.447,1.916 -0.685,2.914 -0.237,0.98 -0.475,1.916 -0.712,2.806 l -0.412,1.634 h 3.756 z m 0.822,3.132 h -5.401 L 99.984,21.5 h -4.112 l 5.565,-17.758 h 4.826 l 5.565,17.758 h -4.277 l -1.07,-4.222 z m 8.515,-13.536 h 4.03 v 14.38 h 7.951 V 21.5 h -11.98 z" />
    </g>
    <g
       id="g114"
       class="navigation__logo-text">
      <path
         id="path112"
         d="m 64.53,35.111 c 0,-1.47 0.219,-2.778 0.657,-3.922 0.44,-1.162 1.042,-2.142 1.81,-2.941 a 7.684,7.684 0 0 1 2.714,-1.825 8.905,8.905 0 0 1 3.345,-0.627 c 1.151,0 2.166,0.236 3.043,0.709 0.896,0.453 1.645,0.97 2.248,1.552 l -2.22,2.478 a 5.685,5.685 0 0 0 -1.371,-0.926 c -0.494,-0.236 -1.06,-0.354 -1.7,-0.354 -0.64,0 -1.225,0.137 -1.755,0.409 -0.53,0.254 -0.996,0.626 -1.398,1.117 -0.384,0.49 -0.685,1.089 -0.905,1.797 -0.22,0.708 -0.329,1.507 -0.329,2.397 0,1.834 0.42,3.26 1.261,4.276 0.841,0.999 1.938,1.498 3.29,1.498 0.64,0 1.216,-0.145 1.727,-0.436 a 5.759,5.759 0 0 0 1.454,-1.144 l 2.22,2.424 c -1.499,1.743 -3.381,2.615 -5.647,2.615 A 9.27,9.27 0 0 1 69.711,43.636 7.785,7.785 0 0 1 67.024,41.893 C 66.257,41.13 65.644,40.186 65.187,39.06 64.749,37.916 64.529,36.6 64.529,35.111 Z m 23.155,9.097 c -1.06,0 -2.038,-0.209 -2.933,-0.627 a 6.728,6.728 0 0 1 -2.276,-1.852 c -0.621,-0.799 -1.106,-1.77 -1.453,-2.914 -0.347,-1.144 -0.52,-2.442 -0.52,-3.895 0,-1.452 0.173,-2.741 0.52,-3.867 0.347,-1.144 0.832,-2.097 1.453,-2.86 a 6.283,6.283 0 0 1 2.276,-1.77 c 0.895,-0.418 1.873,-0.627 2.933,-0.627 1.06,0 2.029,0.21 2.906,0.627 0.896,0.4 1.654,0.99 2.276,1.77 0.64,0.78 1.133,1.743 1.48,2.887 0.348,1.126 0.521,2.406 0.521,3.84 0,1.453 -0.173,2.751 -0.52,3.895 -0.348,1.144 -0.841,2.115 -1.481,2.914 a 6.395,6.395 0 0 1 -2.276,1.852 c -0.877,0.418 -1.846,0.627 -2.906,0.627 z m 0,-3.46 c 0.932,0 1.673,-0.517 2.22,-1.552 0.55,-1.053 0.823,-2.478 0.823,-4.276 0,-1.779 -0.274,-3.168 -0.822,-4.167 -0.548,-0.998 -1.289,-1.498 -2.22,-1.498 -0.933,0 -1.673,0.5 -2.221,1.498 -0.549,0.999 -0.823,2.388 -0.823,4.167 0,1.798 0.274,3.223 0.823,4.276 0.548,1.035 1.288,1.553 2.22,1.553 z m 9.996,-14.625 h 4.853 c 1.298,0 2.477,0.173 3.537,0.518 1.06,0.345 1.964,0.88 2.714,1.607 0.75,0.708 1.325,1.616 1.727,2.723 0.42,1.108 0.63,2.424 0.63,3.95 0,1.525 -0.21,2.85 -0.63,3.976 -0.402,1.126 -0.978,2.06 -1.727,2.805 a 6.999,6.999 0 0 1 -2.632,1.634 c -1.024,0.363 -2.157,0.545 -3.4,0.545 h -5.072 z m 4.634,14.517 c 0.694,0 1.325,-0.1 1.891,-0.3 a 3.53,3.53 0 0 0 1.48,-0.953 c 0.421,-0.454 0.741,-1.044 0.96,-1.77 0.238,-0.727 0.357,-1.625 0.357,-2.697 0,-1.053 -0.12,-1.933 -0.357,-2.641 -0.219,-0.727 -0.539,-1.299 -0.96,-1.716 a 3.312,3.312 0 0 0 -1.48,-0.926 6.179,6.179 0 0 0 -1.891,-0.273 h -0.576 V 40.64 Z m 12.6,-14.517 h 11.79 V 29.5 h -7.76 v 3.568 h 6.58 v 3.35 h -6.58 v 4.086 h 8.033 v 3.377 h -12.063 z" />
    </g>
  </g>
</svg>
